<?xml version="1.0" encoding="utf-8"?>
<svg version="1.1" id="Layer_1" xmlns="http://www.w3.org/2000/svg" xmlns:xlink="http://www.w3.org/1999/xlink" x="0px" y="0px"
	 viewBox="0 0 216.8 80.8" style="enable-background:new 0 0 216.8 80.8;" xml:space="preserve">
<style type="text/css">
	.st0{fill:#008A00;}
</style>
<title>cnesst-logo-only</title>
<g id="Layer_2_1_">
	<g id="Layer_1-2">
		<path class="st0" d="M180.9,3.2c-1-0.6-2-1.1-3.1-1.5c-1.3-0.5-2.7-0.9-4.1-1.2C171.9,0.2,170,0,168.1,0c-1.8,0.1-3.6,0.4-5.3,0.9
			c-2,0.6-3.8,1.7-5.4,3c-1.5,1.3-2.8,3-3.6,4.9c-0.9,2.1-1.4,4.4-1.3,6.7c0,1.6,0.2,3.1,0.7,4.6c0.5,1.4,1.1,2.6,2,3.8
			c0.9,1.2,1.8,2.2,2.9,3.2c1.1,1,2.3,2,3.6,3.1c1.1,0.9,2.1,1.7,3,2.6c0.9,0.8,1.7,1.6,2.5,2.5c0.7,0.8,1.2,1.7,1.7,2.6
			c0.4,0.9,0.6,1.8,0.6,2.8c0,1.1-0.2,2.1-0.7,3.1c-0.5,0.9-1.1,1.7-1.9,2.3c-0.8,0.6-1.7,1.1-2.7,1.4c-1,0.3-2,0.5-3.1,0.5
			c-0.5,0-1,0-1.5-0.1c-2,0-4-0.7-5.7-1.8c-1.9-1.3-3.4-3.2-4.3-5.3H149c-0.1,1.5-0.3,2.9-0.7,4.3c-0.1,0.9-0.4,1.8-0.8,2.7
			c-0.1,0.2-0.1,0.3-0.2,0.5c0.3,0.2,0.7,0.4,1,0.6c1,0.6,2,1.1,3.1,1.5c1.3,0.5,2.7,0.9,4.1,1.2c1.9,0.3,3.9,0.5,5.9,0.5
			c2.3,0,4.6-0.3,6.8-1c2.1-0.6,4-1.5,5.7-2.9c1.6-1.4,2.9-3,3.9-4.9c1-2.2,1.5-4.5,1.4-6.9c0-1.5-0.2-3-0.7-4.4
			c-0.5-1.3-1.1-2.5-1.8-3.6c-0.8-1.1-1.7-2.1-2.7-3.1c-1-1-2.1-1.9-3.2-2.8c-1.4-1.2-2.7-2.2-3.8-3.2c-0.9-0.8-1.9-1.8-2.7-2.7
			c-0.7-0.8-1.2-1.6-1.6-2.6c-0.4-0.8-0.6-1.8-0.6-2.7c0-0.9,0.2-1.7,0.5-2.5c0.3-0.8,0.8-1.5,1.4-2.1c0.7-0.7,1.5-1.2,2.4-1.5
			c1.1-0.4,2.2-0.6,3.3-0.6c2-0.1,4,0.4,5.7,1.5c1.9,1.3,3.4,3.2,4.3,5.3h0.6c0.2-2.5,0.9-4.9,2-7.1C181.8,3.6,181.9,3.7,180.9,3.2"
			/>
		<path class="st0" d="M148.2,3.2c-1-0.6-2-1.1-3.1-1.5c-1.3-0.5-2.7-0.9-4.1-1.2c-1.8-0.3-3.7-0.5-5.6-0.5
			c-1.8,0.1-3.6,0.4-5.3,0.9c-2,0.6-3.8,1.7-5.4,3c-1.5,1.3-2.8,3-3.6,4.9c-0.9,2.1-1.4,4.4-1.3,6.7c0,1.6,0.2,3.1,0.7,4.6
			c0.5,1.4,1.1,2.6,2,3.8c0.9,1.2,1.8,2.2,2.9,3.2c1.1,1,2.3,2,3.6,3.1c1.1,0.9,2.1,1.7,3,2.6c0.9,0.8,1.7,1.6,2.5,2.5
			c0.7,0.8,1.2,1.7,1.7,2.6c0.4,0.9,0.6,1.8,0.6,2.8c0,1.1-0.2,2.1-0.7,3.1c-0.5,0.9-1.1,1.7-1.9,2.3c-0.8,0.6-1.7,1.1-2.7,1.4
			c-1,0.3-2,0.5-3.1,0.5c-0.5,0-1,0-1.5-0.1c-2,0-4-0.7-5.7-1.8c-1.9-1.3-3.4-3.2-4.3-5.3h-0.6c-0.1,1.5-0.4,3-0.7,4.5
			c-0.2,0.8-0.4,1.6-0.7,2.4c-0.1,0.2-0.1,0.4-0.2,0.6c0.3,0.2,0.7,0.4,1,0.6c1,0.6,2,1.1,3.1,1.5c1.3,0.5,2.7,0.9,4.1,1.2
			c1.9,0.3,3.9,0.5,5.9,0.5c2.3,0,4.6-0.3,6.8-1c2.1-0.6,4-1.5,5.7-2.9c1.6-1.4,2.9-3,3.9-4.9c1-2.2,1.5-4.5,1.4-6.9
			c0-1.5-0.2-3-0.7-4.4c-0.5-1.3-1.1-2.5-1.8-3.6c-0.8-1.1-1.7-2.1-2.7-3.1c-1-1-2.1-1.9-3.2-2.8c-1.4-1.2-2.7-2.2-3.8-3.2
			c-0.9-0.8-1.9-1.8-2.7-2.7c-0.7-0.8-1.2-1.6-1.6-2.6c-0.4-0.8-0.6-1.8-0.6-2.7c0-0.9,0.2-1.7,0.5-2.5c0.3-0.8,0.8-1.5,1.4-2.1
			c0.7-0.7,1.5-1.2,2.4-1.5c1-0.4,2.2-0.6,3.3-0.6c2-0.1,4,0.4,5.7,1.5c1.9,1.3,3.4,3.2,4.3,5.3h0.6c0.3-2.4,1.3-4.7,3-6.5
			C149.9,4.3,149.1,3.7,148.2,3.2"/>
		<path class="st0" d="M43.6,4.6c-0.7-0.6-1.6-1-2.4-1.4c-1-0.5-2.1-1-3.4-1.5c-1.5-0.5-3-0.9-4.5-1.2C31.1,0.2,28.9,0,26.7,0
			C19.4-0.1,12.4,2.9,7.4,8.3C5,11,3.1,14,1.9,17.4C0.6,21,0,24.8,0,28.6c0,2.7,0.3,5.3,1,7.9c0.7,2.7,1.9,5.2,3.6,7.4
			c1.9,2.3,4.3,4.2,7,5.4c2.9,1.4,6.6,2,11.1,2c1.9,0,3.9-0.1,5.8-0.4c2.6-0.3,5-1.3,7.2-2.7l0.6-0.4c0.8-2.4,1.5-4.8,1.9-7.3h-0.7
			c-1.7,3-4.6,5.2-7.9,6c-1.6,0.5-3.4,0.8-5.1,0.7c-8.9,0-14.2-6.5-14.2-17.5c0-14.6,8.4-25.3,18.9-25.6c2.3-0.1,4.7,0.5,6.7,1.6
			c2.3,1.2,4.1,3.1,5.4,5.3h1C42.1,11.3,43,8.8,43.6,4.6"/>
		<path class="st0" d="M216.8,1.3c-4.5,0.1-9.4,0.3-15.1,0.3s-12.8-0.5-12.8-0.5c-1.6,1.6-2.7,3.7-3.1,6c2.5-0.1,1.4-0.1,5-0.1
			c1.2,0,3.6,0,4.6,0.1c-0.8,7.2-6.2,31.7-9.8,44.6c2.1,0.1,4.1,0.2,5.9,0.2c2.1,0.1,3.1,0.2,4.9,0.4c0.4-2.7,1-7,2.8-15.3
			c4.2-19.4,5.6-25.8,6.9-29.8c1.6-0.1,2.7,0,4,0c1.9,0,4.6,0.1,5.4,0.2L216.8,1.3z"/>
		<path class="st0" d="M77.2,51.6c4.8-16.8,10.2-50,10.2-50c-2.5-0.1-5.6-0.4-5.6-0.4c-0.1,1.8-0.3,3.6-0.6,5.3
			c-0.3,1.9-0.7,3.7-1,5.9s-0.8,4.5-1.2,6.9s-0.9,4.8-1.3,7s-0.9,4.4-1.3,6.3c-0.4,1.9-0.8,3.6-1.1,4.9c-0.7-1-1.5-2.3-2.6-4
			s-2.2-3.6-3.5-5.7s-2.6-4.4-4-6.8s-2.8-4.8-4.1-7.2s-2.6-4.7-3.8-6.9s-2.2-4.2-3.1-6c-1.9-0.2-3.8-0.2-5.7,0
			c-0.4,2.9-0.9,6-1.4,9.3s-1.2,6.7-1.8,10.1s-1.3,6.8-1.9,10.1s-1.3,6.4-1.9,9.2c0,0-1.3,6.5-2.8,12.1c0,0,3.3-0.3,6.1-0.3
			c0.2-1.5,0.4-3.7,0.9-6.6s1-5.9,1.6-9.3s1.2-6.9,1.9-10.4s1.2-6.3,1.9-9.3C54.9,22,58.3,27.5,62,33.6c3.7,6.1,6.9,11.9,10.1,18.2
			c0,0,2.8-0.1,5.7-0.3"/>
		<path class="st0" d="M102.5,7.2c0,0,5.9-0.2,15.3,0.2c0.8-2,2-3.9,3.5-5.5C101.2,2.3,93,1.8,93,1.8c-0.2,1.6-0.5,3.7-1,6.3
			s-1,5.6-1.6,8.8s-1.3,6.5-2,10s-1.4,6.8-2.1,10s-1.5,6.2-2.2,8.8s-1.1,4.4-1.6,5.8c1.9-0.1,4-0.1,6.3-0.1l6.6-0.1l6.7,0.1
			c2.5,0,4.2,0,7.1,0.1c1.4-2,2.4-4.4,2.9-6.8c-6.4,2.3-17.7,1.8-17.7,1.8c0.4-3.2,1-6.2,1.6-9.5s1.2-6.4,1.9-9.6
			c0,0,9.2,0,13.8,0.5c0.2-1.9,0.6-3.8,1.1-5.6c-5.9,0.5-13.9,0.3-13.9,0.3c0.4-1.9,0.9-4.3,1.6-7.2S101.6,10.1,102.5,7.2"/>
		<path class="st0" d="M10.7,70.3c123.9-10.8,182.9-3.1,182.9-3.1l1.6-8.1c0,0-64.4-7.3-183.4,8.6L10.7,70.3z"/>
		<path class="st0" d="M7.6,78c124.1-6.8,183.2,2.8,183.2,2.8l1.7-8.1c0,0-64.3-9.4-183.7,2.7L7.6,78z"/>
	</g>
</g>
</svg>
